# xmcd
#
# Track frame offsets: 
#        150
#        20147
#        41770
#        76285
#        95933
#        117728
#        137810
#        161358
#        182824
#        202769
#        222259
#        244516
#        255331
#        275147
#        292355
#        310444
#
# Disc length: 4419 seconds
#
# Revision: 0
# Processed by: cddbd v1.5.2PL0 Copyright (c) Steve Scherf et al.
# Submitted via: ExactAudioCopy v0.99pb3
#
DISCID=f9114110
DTITLE=Farlowe, Chris - Rock'n'Roll Soldier
DYEAR=2006
DGENRE=Blues
TTITLE0=Trouble
TTITLE1=Blues As Blues Can Get
TTITLE2=Stormy Monday
TTITLE3=Language Of The Heart
TTITLE4=Handbags And Gladrags
TTITLE5=Tin Soldier
TTITLE6=Sitting On Top Of The World
TTITLE7=Born Again
TTITLE8=The Thrill Has Gone
TTITLE9=Tough On Me Tough On You
TTITLE10=On The Beach
TTITLE11=I Think It's Gonny Rain Today
TTITLE12=Bewitched
TTITLE13=All Or Nothing
TTITLE14=Glory Bound
TTITLE15=Out Of Time
EXTD=
EXTT0=
EXTT1=
EXTT2=
EXTT3=
EXTT4=
EXTT5=
EXTT6=
EXTT7=
EXTT8=
EXTT9=
EXTT10=
EXTT11=
EXTT12=
EXTT13=
EXTT14=
EXTT15=
PLAYORDER=
